{"title":"[MARATHI] Kalshekar Aahet Ka 2010 720p x264 MP3 [TMB]","uid":8836051,"size":1127362164,"categoryP":"video","categoryS":"hd___movies","magnet":"?xt=urn:btih:d26b8e821f9425ecf48ccb73044746a65cf8c3a4&amp;dn=%5BMARATHI%5D+Kalshekar+Aahet+Ka+2010+720p+x264+MP3+%5BTMB%5D&amp;tr=udp%3A%2F%2Ftracker.openbittorrent.com%3A80&amp;tr=udp%3A%2F%2Fopen.demonii.com%3A1337&amp;tr=udp%3A%2F%2Ftracker.coppersurfer.tk%3A6969&amp;tr=udp%3A%2F%2Fexodus.desync.com%3A6969","seeders":1,"leechers":1,"uploader":"SJonam","files":2,"time":1377117302,"description":" &lt;a href=&quot;http://desibbrg.org/images/15651891654054630733.jpg&quot; rel=&quot;nofollow&quot; target=&quot;_NEW&quot;&gt;http://desibbrg.org/images/15651891654054630733.jpg&lt;/a&gt; &lt;a href=&quot;\nhttp://desibbrg.org/images/44132027253319632465.png&quot; rel=&quot;nofollow&quot; target=&quot;_NEW&quot;&gt;\nhttp://desibbrg.org/images/44132027253319632465.png&lt;/a&gt; &lt;a href=&quot;\nhttp://desibbrg.org/images/56226040051828074961.png&quot; rel=&quot;nofollow&quot; target=&quot;_NEW&quot;&gt;\nhttp://desibbrg.org/images/56226040051828074961.png&lt;/a&gt; &lt;a href=&quot;\nhttp://desibbrg.org/images/18579079616539702468.png&quot; rel=&quot;nofollow&quot; target=&quot;_NEW&quot;&gt;\nhttp://desibbrg.org/images/18579079616539702468.png&lt;/a&gt; &lt;a href=&quot;\nhttp://desibbrg.org/images/10125189194211627402.png&quot; rel=&quot;nofollow&quot; target=&quot;_NEW&quot;&gt;\nhttp://desibbrg.org/images/10125189194211627402.png&lt;/a&gt; &lt;a href=&quot;\nhttp://desibbrg.org/images/18195275396161981172.png&quot; rel=&quot;nofollow&quot; target=&quot;_NEW&quot;&gt;\nhttp://desibbrg.org/images/18195275396161981172.png&lt;/a&gt; &lt;a href=&quot;\nhttp://desibbrg.org/images/93020582912086539519.png&quot; rel=&quot;nofollow&quot; target=&quot;_NEW&quot;&gt;\nhttp://desibbrg.org/images/93020582912086539519.png&lt;/a&gt;\n\nInfo - \nCast\nBharat Jadhav\nDeepali Sayyad\nSanjay Narvekar\nReshma Merchant\nDeepak Shirke\nUsha Nadkarni\nKishore Nandlaskar\nRavindra Berde\nJayraj Nair\nGanesh Divekar\nVijay Chavan\nasha Nyate\nJanardhan Parab\nVikas Samudre\nResham Chitar\n\nCrew\nDirector - Vijay Satghare\nProducer - Suryakant Suryavanshi\nStory - Anil Pawar\nScreenplay - Anil Pawar\nDialogue - Anil Pawar\n\nPlot - \nKalshekar (Bharat Jadhav) is a rich person &amp; he always thinks that someone from their nominee of going to kill him for the property. Suddenly a newly married couple comes for honeymoon in his bungalow and what problem they face is rest of the story.\n\nMedia Info - \nVideo\nFormat                         : AVC\nFormat/Info                    : Advanced Video Codec\nFormat profile                 : &lt;a class=&quot;__cf_email__&quot; href=&quot;/cdn-cgi/l/email-protection&quot; data-cfemail=&quot;ca87aba3a48a86f9e4fb&quot;&gt;[email&amp;#160;protected]&lt;/a&gt;&lt;script cf-hash='f9e31' type=&quot;text/javascript&quot;&gt;\n/* &lt;![CDATA[ */!function(){try{var t=&quot;currentScript&quot;in document?document.currentScript:function(){for(var t=document.getElementsByTagName(&quot;script&quot;),e=t.length;e--;)if(t[e].getAttribute(&quot;cf-hash&quot;))return t[e]}();if(t&amp;&amp;t.previousSibling){var e,r,n,i,c=t.previousSibling,a=c.getAttribute(&quot;data-cfemail&quot;);if(a){for(e=&quot;&quot;,r=parseInt(a.substr(0,2),16),n=2;a.length-n;n+=2)i=parseInt(a.substr(n,2),16)^r,e+=String.fromCharCode(i);e=document.createTextNode(e),c.parentNode.replaceChild(e,c)}}}catch(u){}}();/* ]]&gt; */&lt;/script&gt;\nFormat settings, CABAC         : Yes\nFormat settings, ReFrames      : 1 frame\nCodec ID                       : H264\nDuration                       : 1h 51mn\nBit rate                       : 1 073 Kbps\nWidth                          : 1 280 pixels\nHeight                         : 720 pixels\nDisplay aspect ratio           : 16:9\nFrame rate mode                : Variable\nFrame rate                     : 25.000 fps\nColor space                    : YUV\nChroma subsampling             : 4:2:0\nBit depth                      : 8 bits\nScan type                      : Progressive\nBits/(Pixel*Frame)             : 0.047\nStream size                    : 847 MiB (80%)\nWriting library                : x264 core 129\n\nAudio\nFormat                         : MPEG Audio\nFormat version                 : Version 1\nFormat profile                 : Layer 3\nMode                           : Joint stereo\nMode extension                 : MS Stereo\nCodec ID                       : 55\nCodec ID/Hint                  : MP3\nDuration                       : 1h 51mn\nBit rate mode                  : Constant\nBit rate                       : 256 Kbps\nChannel count                  : 2 channels\nSampling rate                  : 44.1 KHz\nCompression mode               : Lossy\nStream size                    : 204 MiB (19%)\nAlignment                      : Aligned on interleaves\nInterleave, duration           : 26 ms (0.65 video frame)\n\nSample in Torrent...\n\nRipper : Manojvb\n\nSeeding will be very slow till next 10 hours...\n &lt;a href=&quot;\nhttp://desibbrg.org/images/48627592875446061657.gif&quot; rel=&quot;nofollow&quot; target=&quot;_NEW&quot;&gt;\nhttp://desibbrg.org/images/48627592875446061657.gif&lt;/a&gt;","torrent":{"xt":"urn:btih:d26b8e821f9425ecf48ccb73044746a65cf8c3a4","amp;dn":"%5BMARATHI%5D+Kalshekar+Aahet+Ka+2010+720p+x264+MP3+%5BTMB%5D","amp;tr":["udp%3A%2F%2Ftracker.openbittorrent.com%3A80","udp%3A%2F%2Fopen.demonii.com%3A1337","udp%3A%2F%2Ftracker.coppersurfer.tk%3A6969","udp%3A%2F%2Fexodus.desync.com%3A6969"],"infoHash":"d26b8e821f9425ecf48ccb73044746a65cf8c3a4","infoHashBuffer":{"type":"Buffer","data":[210,107,142,130,31,148,37,236,244,140,203,115,4,71,70,166,92,248,195,164]},"announce":[],"urlList":[]}}